<svg xmlns="http://www.w3.org/2000/svg" width="37" height="37" viewBox="0 0 37 37">
        <g transform="translate(6487 1)">
            <rect width="37" height="37" transform="translate(-6487 -1)" fill="#fff" opacity="0"/>
            <path d="M33.783,8.178A4.2,4.2,0,0,0,30.827,5.2c-2.607-.7-13.061-.7-13.061-.7S7.311,4.5,4.7,5.2A4.2,4.2,0,0,0,1.749,8.178a44.067,44.067,0,0,0-.7,8.1,44.067,44.067,0,0,0,.7,8.1A4.138,4.138,0,0,0,4.7,27.3c2.607.7,13.061.7,13.061.7s10.454,0,13.061-.7a4.138,4.138,0,0,0,2.956-2.927,44.067,44.067,0,0,0,.7-8.1,44.067,44.067,0,0,0-.7-8.1ZM14.347,21.248V11.306l8.738,4.971-8.738,4.971Z" transform="translate(-6486.05 1.482)" fill="#fff" stroke="#000" stroke-width="1.1"/>
        </g>
    </svg>