<svg xmlns="http://www.w3.org/2000/svg" width="37" height="37" viewBox="0 0 37 37">
        <g transform="translate(6531 1)">
            <rect width="37" height="37" transform="translate(-6531 -1)" fill="#fff" opacity="0"/>
            <path d="M28.12,9.725c.02.278.02.557.02.835,0,8.492-6.463,18.276-18.276,18.276A18.152,18.152,0,0,1,0,25.953a13.288,13.288,0,0,0,1.551.08,12.864,12.864,0,0,0,7.975-2.744A6.435,6.435,0,0,1,3.52,18.833a8.1,8.1,0,0,0,1.213.1,6.794,6.794,0,0,0,1.69-.219,6.424,6.424,0,0,1-5.151-6.3v-.08a6.469,6.469,0,0,0,2.9.815A6.433,6.433,0,0,1,2.188,4.554a18.259,18.259,0,0,0,13.245,6.722A7.251,7.251,0,0,1,15.273,9.8a6.43,6.43,0,0,1,11.117-4.4,12.647,12.647,0,0,0,4.077-1.551A6.406,6.406,0,0,1,27.643,7.4a12.877,12.877,0,0,0,3.7-.994A13.808,13.808,0,0,1,28.12,9.725Z" transform="translate(-6528.5 1.731)" fill="#fff" stroke="#000" stroke-width="1.1"/>
        </g>
    </svg>